<svg xmlns="http://www.w3.org/2000/svg" width="25" height="25" viewBox="0 0 16 16"><g transform="translate(0 -1036.362)"><path fill="#c2e4f8" d="m 15.499996,1044.8622 a 7,7 0 0 1 -6.9999998,7 7,7 0 0 1 -7,-7 7,7 0 0 1 7,-7 7,7 0 0 1 6.9999998,7 z"/><path fill="#00d1b6" fill-rule="evenodd" d="m 9.97356,1048.5239 0,-2.9964"/><path fill="#249fe6" style="line-height:normal;text-indent:0;text-align:start;text-decoration-line:none;text-decoration-style:solid;text-decoration-color:#000;text-transform:none;block-progression:tb;isolation:auto;mix-blend-mode:normal" d="m 8.5,1037.3613 c -4.1362133,0 -7.5,3.3638 -7.5,7.5 0,4.1362 3.3637867,7.5 7.5,7.5 4.136213,0 7.5,-3.3638 7.5,-7.5 0,-4.1362 -3.363787,-7.5 -7.5,-7.5 z m 0,1 c 3.595773,0 6.5,2.9043 6.5,6.5 0,3.5958 -2.904227,6.5 -6.5,6.5 -3.5957732,0 -6.5,-2.9042 -6.5,-6.5 0,-3.5957 2.9042268,-6.5 6.5,-6.5 z" color="#000" font-family="sans-serif" font-weight="400" overflow="visible" white-space="normal"/><path fill="#249fe6" fill-rule="evenodd" style="line-height:normal;text-indent:0;text-align:start;text-decoration-line:none;text-decoration-style:solid;text-decoration-color:#000;text-transform:none;block-progression:tb;isolation:auto;mix-blend-mode:normal" d="M 8.4921875,1040.8555 A 0.50005,0.50005 0 0 0 8,1041.3613 l 0,7 a 0.50005,0.50005 0 1 0 1,0 l 0,-7 a 0.50005,0.50005 0 0 0 -0.5078125,-0.5058 z" color="#000" font-family="sans-serif" font-weight="400" overflow="visible" white-space="normal"/><path fill="#249fe6" fill-rule="evenodd" style="line-height:normal;text-indent:0;text-align:start;text-decoration-line:none;text-decoration-style:solid;text-decoration-color:#000;text-transform:none;block-progression:tb;isolation:auto;mix-blend-mode:normal" d="m 5,1044.3613 a 0.50005,0.50005 0 1 0 0,1 l 7,0 a 0.50005,0.50005 0 1 0 0,-1 l -7,0 z" color="#000" font-family="sans-serif" font-weight="400" overflow="visible" white-space="normal"/></g></svg>